<?xml version="1.0" encoding="UTF-8"?>
<!DOCTYPE svg PUBLIC "-//W3C//DTD SVG 1.1//EN" "http://www.w3.org/Graphics/SVG/1.1/DTD/svg11.dtd">
<svg xmlns="http://www.w3.org/2000/svg" version="1.1" width="568px" height="439px" style="shape-rendering:geometricPrecision; text-rendering:geometricPrecision; image-rendering:optimizeQuality; fill-rule:evenodd; clip-rule:evenodd" xmlns:xlink="http://www.w3.org/1999/xlink">
<g><path style="opacity:1" fill="#e0e0e0" d="M 116.5,235.5 C 116.42,238.781 117.087,241.781 118.5,244.5C 121.07,254.655 125.07,264.321 130.5,273.5C 125.99,275.736 121.323,276.07 116.5,274.5C 113.129,264.391 110.796,254.058 109.5,243.5C 109.5,233.833 109.5,224.167 109.5,214.5C 113.824,191.005 127.491,175.838 150.5,169C 151.833,168.333 153.167,168.333 154.5,169C 125.435,181.614 112.769,203.78 116.5,235.5 Z"/></g>
<g><path style="opacity:0.081" fill="#1a1a1a" d="M 226.5,173.5 C 232.678,172.183 239.012,172.183 245.5,173.5C 245.376,174.107 245.043,174.44 244.5,174.5C 238.69,173.51 232.69,173.177 226.5,173.5 Z"/></g>
<g><path style="opacity:0.064" fill="#1c1c1c" d="M 362.5,173.5 C 356.074,172.88 350.074,173.547 344.5,175.5C 343.596,174.791 343.263,173.791 343.5,172.5C 350.022,172.177 356.355,172.51 362.5,173.5 Z"/></g>
<g><path style="opacity:0.034" fill="#191919" d="M 321.5,173.5 C 326.64,172.512 331.974,172.179 337.5,172.5C 337.5,201.167 337.5,229.833 337.5,258.5C 331.31,258.823 325.31,258.49 319.5,257.5C 324.833,257.5 330.167,257.5 335.5,257.5C 336.498,229.672 336.831,201.672 336.5,173.5C 331.5,173.5 326.5,173.5 321.5,173.5 Z"/></g>
<g><path style="opacity:1" fill="#eeeeee" d="M 196.5,230.5 C 196.66,232.153 197.326,233.486 198.5,234.5C 207.715,214.708 217.048,194.374 226.5,173.5C 232.69,173.177 238.69,173.51 244.5,174.5C 232.77,202.292 220.77,229.959 208.5,257.5C 202.167,258.833 195.833,258.833 189.5,257.5C 176.879,229.809 164.546,201.975 152.5,174C 155.647,172.872 158.98,172.372 162.5,172.5C 165.752,172.521 168.919,172.854 172,173.5C 180.747,192.319 188.914,211.319 196.5,230.5 Z"/></g>
<g><path style="opacity:1" fill="#fdfdfd" d="M 268.5,173.5 C 268.5,184.833 268.5,196.167 268.5,207.5C 285.5,207.5 302.5,207.5 319.5,207.5C 320.495,196.679 320.828,185.679 320.5,174.5C 325.5,174.5 330.5,174.5 335.5,174.5C 335.5,202.167 335.5,229.833 335.5,257.5C 330.167,257.5 324.833,257.5 319.5,257.5C 318.427,246.246 318.427,235.246 319.5,224.5C 302.675,223.503 285.675,223.17 268.5,223.5C 268.5,234.833 268.5,246.167 268.5,257.5C 263.167,257.5 257.833,257.5 252.5,257.5C 252.5,229.5 252.5,201.5 252.5,173.5C 257.833,173.5 263.167,173.5 268.5,173.5 Z"/></g>
<g><path style="opacity:0.917" fill="#d6d6d6" d="M 321.5,173.5 C 326.5,173.5 331.5,173.5 336.5,173.5C 336.831,201.672 336.498,229.672 335.5,257.5C 335.5,229.833 335.5,202.167 335.5,174.5C 330.5,174.5 325.5,174.5 320.5,174.5C 320.828,185.679 320.495,196.679 319.5,207.5C 319.5,207.167 319.5,206.833 319.5,206.5C 319.029,204.712 318.696,202.878 318.5,201C 318.732,191.457 319.732,182.29 321.5,173.5 Z"/></g>
<g><path style="opacity:1" fill="#eeeeee" d="M 344.5,175.5 C 350.074,173.547 356.074,172.88 362.5,173.5C 371.669,193.838 380.836,214.171 390,234.5C 398.612,213.629 407.779,193.129 417.5,173C 423.491,172.501 429.491,172.334 435.5,172.5C 424.07,201.366 412.07,230.033 399.5,258.5C 392.91,258.811 386.41,258.478 380,257.5C 367.897,230.292 356.063,202.959 344.5,175.5 Z"/></g>
<g><path style="opacity:1" fill="#5a461d" d="M 141.5,183.5 C 141.672,182.508 141.338,181.842 140.5,181.5C 141.314,179.727 142.648,179.227 144.5,180C 143.837,181.518 142.837,182.685 141.5,183.5 Z"/></g>
<g><path style="opacity:0.007" fill="#080303" d="M 135.5,185.5 C 135.167,186.5 134.5,187.167 133.5,187.5C 132.5,185.167 133.167,184.5 135.5,185.5 Z"/></g>
<g><path style="opacity:1" fill="#b7871e" d="M 140.5,181.5 C 141.338,181.842 141.672,182.508 141.5,183.5C 140.378,186.438 138.378,188.438 135.5,189.5C 134.167,189.5 133.5,188.833 133.5,187.5C 134.5,187.167 135.167,186.5 135.5,185.5C 136.579,183.457 138.246,182.124 140.5,181.5 Z"/></g>
<g><path style="opacity:0.007" fill="#1b140a" d="M 133.5,187.5 C 133.5,188.833 134.167,189.5 135.5,189.5C 136.506,190.396 136.506,191.062 135.5,191.5C 134.167,191.5 132.833,191.5 131.5,191.5C 131.229,189.62 131.896,188.287 133.5,187.5 Z"/></g>
<g><path style="opacity:1" fill="#d99f1e" d="M 131.5,191.5 C 132.833,191.5 134.167,191.5 135.5,191.5C 135.118,195.332 133.785,198.665 131.5,201.5C 129.585,201.784 127.919,201.451 126.5,200.5C 126.884,196.728 128.55,193.728 131.5,191.5 Z"/></g>
<g><path style="opacity:0.271" fill="#4a3616" d="M 126.5,200.5 C 127.919,201.451 129.585,201.784 131.5,201.5C 129.636,202.793 127.636,202.793 125.5,201.5C 125.624,200.893 125.957,200.56 126.5,200.5 Z"/></g>
<g><path style="opacity:0.465" fill="#777777" d="M 268.5,173.5 C 268.833,173.5 269.167,173.5 269.5,173.5C 269.5,184.5 269.5,195.5 269.5,206.5C 286.167,206.5 302.833,206.5 319.5,206.5C 319.5,206.833 319.5,207.167 319.5,207.5C 302.5,207.5 285.5,207.5 268.5,207.5C 268.5,196.167 268.5,184.833 268.5,173.5 Z"/></g>
<g><path style="opacity:1" fill="#dbdbdb" d="M 135.5,201.5 C 137.33,209.322 139.496,217.322 142,225.5C 148.785,237.285 157.952,246.785 169.5,254C 181.821,261.163 194.488,267.663 207.5,273.5C 200.516,275.592 193.516,275.425 186.5,273C 170.225,266.117 156.392,255.95 145,242.5C 136.042,230.215 132.875,216.549 135.5,201.5 Z"/></g>
<g><path style="opacity:0.061" fill="#2b1e05" d="M 130.5,205.5 C 131.489,210.975 131.822,216.642 131.5,222.5C 128.615,222.806 125.948,222.473 123.5,221.5C 125.833,221.5 128.167,221.5 130.5,221.5C 130.5,216.167 130.5,210.833 130.5,205.5 Z"/></g>
<g><path style="opacity:1" fill="#d99f1c" d="M 130.5,205.5 C 130.5,210.833 130.5,216.167 130.5,221.5C 128.167,221.5 125.833,221.5 123.5,221.5C 122.844,220.378 122.511,219.045 122.5,217.5C 123.061,213.137 123.727,208.804 124.5,204.5C 126.735,204.205 128.735,204.539 130.5,205.5 Z"/></g>
<g><path style="opacity:0.854" fill="#b0b0b0" d="M 109.5,214.5 C 109.5,224.167 109.5,233.833 109.5,243.5C 107.607,233.689 107.607,224.022 109.5,214.5 Z"/></g>
<g><path style="opacity:0.433" fill="#686868" d="M 269.5,173.5 C 269.167,173.5 268.833,173.5 268.5,173.5C 263.167,173.5 257.833,173.5 252.5,173.5C 252.5,201.5 252.5,229.5 252.5,257.5C 257.833,257.5 263.167,257.5 268.5,257.5C 268.5,246.167 268.5,234.833 268.5,223.5C 285.675,223.17 302.675,223.503 319.5,224.5C 302.833,224.5 286.167,224.5 269.5,224.5C 269.5,235.833 269.5,247.167 269.5,258.5C 263.5,258.5 257.5,258.5 251.5,258.5C 251.5,229.833 251.5,201.167 251.5,172.5C 257.69,172.177 263.69,172.51 269.5,173.5 Z"/></g>
<g><path style="opacity:1" fill="#e1a41c" d="M 136.5,236.5 C 136.427,238.027 137.094,239.027 138.5,239.5C 140.136,241.383 140.469,243.383 139.5,245.5C 135.803,246.827 132.136,246.827 128.5,245.5C 128.068,244.29 127.401,243.29 126.5,242.5C 125.549,241.081 125.216,239.415 125.5,237.5C 125.768,235.901 125.434,234.568 124.5,233.5C 124.5,233.167 124.5,232.833 124.5,232.5C 124.5,230.833 124.5,229.167 124.5,227.5C 126.833,227.5 129.167,227.5 131.5,227.5C 131.895,231.297 133.562,234.297 136.5,236.5 Z"/></g>
<g><path style="opacity:1" fill="#ba891f" d="M 136.5,236.5 C 133.562,234.297 131.895,231.297 131.5,227.5C 129.167,227.5 126.833,227.5 124.5,227.5C 124.5,229.167 124.5,230.833 124.5,232.5C 123.539,230.735 123.205,228.735 123.5,226.5C 126.572,226.183 129.572,226.516 132.5,227.5C 134.219,230.323 135.553,233.323 136.5,236.5 Z"/></g>
<g><path style="opacity:0.035" fill="#292929" d="M 196.5,230.5 C 198.104,231.287 198.771,232.62 198.5,234.5C 197.326,233.486 196.66,232.153 196.5,230.5 Z"/></g>
<g><path style="opacity:0.573" fill="#5e4418" d="M 124.5,233.5 C 125.434,234.568 125.768,235.901 125.5,237.5C 123.891,236.335 123.557,235.001 124.5,233.5 Z"/></g>
<g><path style="opacity:0.118" fill="#3a2910" d="M 136.5,236.5 C 137.906,236.973 138.573,237.973 138.5,239.5C 137.094,239.027 136.427,238.027 136.5,236.5 Z"/></g>
<g><path style="opacity:0.914" fill="#8d8d8d" d="M 116.5,235.5 C 117.913,238.219 118.58,241.219 118.5,244.5C 117.087,241.781 116.42,238.781 116.5,235.5 Z"/></g>
<g><path style="opacity:0.18" fill="#39250c" d="M 126.5,242.5 C 127.401,243.29 128.068,244.29 128.5,245.5C 126.952,245.179 126.285,244.179 126.5,242.5 Z"/></g>
<g><path style="opacity:1" fill="#e0a41c" d="M 151.5,257.5 C 151.833,259.833 153.167,261.167 155.5,261.5C 155.525,264.179 156.858,265.512 159.5,265.5C 162.167,267.5 164.5,269.833 166.5,272.5C 159.352,273.492 152.019,273.825 144.5,273.5C 143.167,273.5 142.5,272.833 142.5,271.5C 142.167,270.5 141.5,269.833 140.5,269.5C 135.63,264.433 132.296,258.433 130.5,251.5C 135.894,250.066 141.227,250.233 146.5,252C 148.373,253.704 150.04,255.537 151.5,257.5 Z"/></g>
<g><path style="opacity:0.663" fill="#4f3a15" d="M 151.5,257.5 C 153.167,258.5 154.5,259.833 155.5,261.5C 153.167,261.167 151.833,259.833 151.5,257.5 Z"/></g>
<g><path style="opacity:1" fill="#8f6a1d" d="M 155.5,261.5 C 157.167,262.5 158.5,263.833 159.5,265.5C 156.858,265.512 155.525,264.179 155.5,261.5 Z"/></g>
<g><path style="opacity:0.624" fill="#7b5d1c" d="M 219.5,266.5 C 221.948,265.527 224.615,265.194 227.5,265.5C 227.567,266.959 227.234,268.292 226.5,269.5C 226.167,269.5 225.833,269.5 225.5,269.5C 224.833,268.167 224.167,268.167 223.5,269.5C 222.957,269.44 222.624,269.107 222.5,268.5C 223.729,267.719 225.062,267.219 226.5,267C 224.19,266.503 221.857,266.337 219.5,266.5 Z"/></g>
<g><path style="opacity:0.613" fill="#6f5216" d="M 383.5,268.5 C 383.167,268.5 382.833,268.5 382.5,268.5C 383.263,267.732 384.263,267.232 385.5,267C 380.623,266.106 378.956,266.272 380.5,267.5C 380.5,270.167 380.5,272.833 380.5,275.5C 380.167,275.5 379.833,275.5 379.5,275.5C 379.5,273.167 379.5,270.833 379.5,268.5C 378.5,268.5 377.5,268.5 376.5,268.5C 376.5,267.5 376.5,266.5 376.5,265.5C 379.833,265.5 383.167,265.5 386.5,265.5C 386.854,268.494 385.854,269.494 383.5,268.5 Z"/></g>
<g><path style="opacity:0.358" fill="#563e19" d="M 260.5,265.5 C 261.833,265.5 263.167,265.5 264.5,265.5C 264.5,269.167 264.5,272.833 264.5,276.5C 263.167,276.5 261.833,276.5 260.5,276.5C 260.5,272.833 260.5,269.167 260.5,265.5 Z"/></g>
<g><path style="opacity:1" fill="#eeb122" d="M 261.5,266.5 C 262.765,267.514 263.431,269.014 263.5,271C 263.167,272.5 262.833,274 262.5,275.5C 261.516,272.572 261.183,269.572 261.5,266.5 Z"/></g>
<g><path style="opacity:0.264" fill="#503910" d="M 272.5,266.5 C 271.5,266.5 270.5,266.5 269.5,266.5C 269.183,269.572 269.516,272.572 270.5,275.5C 271.167,273.833 271.833,272.167 272.5,270.5C 273.298,270.957 273.631,271.624 273.5,272.5C 272.167,273.167 272.167,273.833 273.5,274.5C 272.365,276.213 270.698,276.88 268.5,276.5C 268.5,272.833 268.5,269.167 268.5,265.5C 270.099,265.232 271.432,265.566 272.5,266.5 Z"/></g>
<g><path style="opacity:1" fill="#d69e20" d="M 278.5,275.5 C 277.167,275.167 275.833,274.833 274.5,274.5C 274.167,274.5 273.833,274.5 273.5,274.5C 273.5,273.833 273.5,273.167 273.5,272.5C 273.631,271.624 273.298,270.957 272.5,270.5C 271.833,272.167 271.167,273.833 270.5,275.5C 269.516,272.572 269.183,269.572 269.5,266.5C 270.5,266.5 271.5,266.5 272.5,266.5C 274.81,270.786 275.81,270.452 275.5,265.5C 276.5,265.5 277.5,265.5 278.5,265.5C 278.5,268.833 278.5,272.167 278.5,275.5 Z"/></g>
<g><path style="opacity:0.463" fill="#684d16" d="M 317.5,266.5 C 315.167,266.5 312.833,266.5 310.5,266.5C 310.5,269.5 310.5,272.5 310.5,275.5C 310.167,275.5 309.833,275.5 309.5,275.5C 309.5,272.167 309.5,268.833 309.5,265.5C 312.385,265.194 315.052,265.527 317.5,266.5 Z"/></g>
<g><path style="opacity:0.061" fill="#180e01" d="M 326.5,265.5 C 327.482,268.962 327.815,272.629 327.5,276.5C 325.901,276.768 324.568,276.434 323.5,275.5C 324.5,275.5 325.5,275.5 326.5,275.5C 326.5,272.167 326.5,268.833 326.5,265.5 Z"/></g>
<g><path style="opacity:0.005" fill="#000100" d="M 328.5,266.5 C 329.573,267.251 329.74,268.251 329,269.5C 328.517,268.552 328.351,267.552 328.5,266.5 Z"/></g>
<g><path style="opacity:1" fill="#f0b123" d="M 370.5,273.5 C 371.833,273.5 373.167,273.5 374.5,273.5C 374.5,274.167 374.5,274.833 374.5,275.5C 372.167,275.5 369.833,275.5 367.5,275.5C 367.183,272.428 367.516,269.428 368.5,266.5C 369.168,268.969 369.835,271.302 370.5,273.5 Z"/></g>
<g><path style="opacity:0.393" fill="#543d0f" d="M 370.5,272.5 C 370.5,272.833 370.5,273.167 370.5,273.5C 369.835,271.302 369.168,268.969 368.5,266.5C 367.516,269.428 367.183,272.428 367.5,275.5C 369.833,275.5 372.167,275.5 374.5,275.5C 372.052,276.473 369.385,276.806 366.5,276.5C 366.5,272.833 366.5,269.167 366.5,265.5C 367.833,265.5 369.167,265.5 370.5,265.5C 370.5,267.833 370.5,270.167 370.5,272.5 Z"/></g>
<g><path style="opacity:1" fill="#efb123" d="M 382.5,268.5 C 383.01,271.388 382.344,273.721 380.5,275.5C 380.5,272.833 380.5,270.167 380.5,267.5C 378.956,266.272 380.623,266.106 385.5,267C 384.263,267.232 383.263,267.732 382.5,268.5 Z"/></g>
<g><path style="opacity:0.217" fill="#422a09" d="M 397.5,266.5 C 395.167,266.5 392.833,266.5 390.5,266.5C 390.5,269.5 390.5,272.5 390.5,275.5C 392.167,275.5 393.833,275.5 395.5,275.5C 393.735,276.461 391.735,276.795 389.5,276.5C 389.5,272.833 389.5,269.167 389.5,265.5C 392.385,265.194 395.052,265.527 397.5,266.5 Z"/></g>
<g><path style="opacity:1" fill="#e9ae22" d="M 287.5,269.5 C 289.483,269.157 290.817,269.824 291.5,271.5C 284.833,272.167 284.833,272.833 291.5,273.5C 289.721,275.344 287.388,276.01 284.5,275.5C 284.5,272.5 284.5,269.5 284.5,266.5C 286.527,266.338 288.527,266.505 290.5,267C 289.062,267.219 287.729,267.719 286.5,268.5C 286.624,269.107 286.957,269.44 287.5,269.5 Z"/></g>
<g><path style="opacity:0.997" fill="#d09c25" d="M 326.5,265.5 C 326.5,268.833 326.5,272.167 326.5,275.5C 325.5,275.5 324.5,275.5 323.5,275.5C 323.5,272.167 323.5,268.833 323.5,265.5C 324.5,265.5 325.5,265.5 326.5,265.5 Z"/></g>
<g><path style="opacity:1" fill="#e2a71e" d="M 334.5,266.5 C 335.833,266.5 336.5,267.167 336.5,268.5C 336.783,269.289 337.283,269.956 338,270.5C 339.242,265.207 340.075,265.374 340.5,271C 340.431,272.986 339.765,274.486 338.5,275.5C 337.833,275.5 337.5,275.167 337.5,274.5C 335.387,269.097 334.053,269.431 333.5,275.5C 333.167,274 332.833,272.5 332.5,271C 332.569,269.014 333.235,267.514 334.5,266.5 Z"/></g>
<g><path style="opacity:1" fill="#d09a22" d="M 397.5,266.5 C 398.748,267.334 399.415,268.667 399.5,270.5C 400.226,273.958 398.893,275.625 395.5,275.5C 393.833,275.5 392.167,275.5 390.5,275.5C 390.5,272.5 390.5,269.5 390.5,266.5C 392.833,266.5 395.167,266.5 397.5,266.5 Z M 393.5,268.5 C 395.19,268.856 396.19,269.856 396.5,271.5C 394.121,272.567 393.121,271.567 393.5,268.5 Z"/></g>
<g><path style="opacity:0.478" fill="#684714" d="M 393.5,268.5 C 393.121,271.567 394.121,272.567 396.5,271.5C 395.817,273.176 394.483,273.843 392.5,273.5C 392.216,271.585 392.549,269.919 393.5,268.5 Z"/></g>
<g><path style="opacity:0.004" fill="#32220e" d="M 140.5,269.5 C 141.5,269.833 142.167,270.5 142.5,271.5C 141.167,271.5 140.5,270.833 140.5,269.5 Z"/></g>
<g><path style="opacity:1" fill="#b6871d" d="M 219.5,266.5 C 221.857,266.337 224.19,266.503 226.5,267C 225.062,267.219 223.729,267.719 222.5,268.5C 222.624,269.107 222.957,269.44 223.5,269.5C 224.167,269.5 224.833,269.5 225.5,269.5C 225.833,269.5 226.167,269.5 226.5,269.5C 225.665,270.943 224.332,271.943 222.5,272.5C 224.045,273.452 225.712,273.785 227.5,273.5C 227.5,274.5 227.5,275.5 227.5,276.5C 224.552,276.777 221.719,276.444 219,275.5C 218.195,272.304 218.362,269.304 219.5,266.5 Z"/></g>
<g><path style="opacity:0.01" fill="#020000" d="M 265.5,270.5 C 267.972,271.749 268.139,273.415 266,275.5C 265.506,273.866 265.34,272.199 265.5,270.5 Z"/></g>
<g><path style="opacity:0.945" fill="#ca9621" d="M 317.5,266.5 C 318.833,268.167 318.833,269.833 317.5,271.5C 316.285,272.779 316.618,273.779 318.5,274.5C 317.791,275.404 316.791,275.737 315.5,275.5C 314.833,275.5 314.5,275.167 314.5,274.5C 314.217,273.711 313.717,273.044 313,272.5C 312.764,274.119 311.931,275.119 310.5,275.5C 310.5,272.5 310.5,269.5 310.5,266.5C 312.833,266.5 315.167,266.5 317.5,266.5 Z"/></g>
<g><path style="opacity:1" fill="#cf991e" d="M 241.5,274.5 C 240.368,275.354 239.035,275.354 237.5,274.5C 237.167,273.833 236.833,273.167 236.5,272.5C 236.217,271.711 235.717,271.044 235,270.5C 234.95,272.744 234.117,274.411 232.5,275.5C 232.5,272.167 232.5,268.833 232.5,265.5C 235.292,265.452 237.125,266.785 238,269.5C 238.49,268.207 238.657,266.873 238.5,265.5C 239.5,265.5 240.5,265.5 241.5,265.5C 241.5,268.5 241.5,271.5 241.5,274.5 Z"/></g>
<g><path style="opacity:0.5" fill="#4b3716" d="M 338.5,275.5 C 339.765,274.486 340.431,272.986 340.5,271C 340.075,265.374 339.242,265.207 338,270.5C 337.283,269.956 336.783,269.289 336.5,268.5C 337.404,267.791 337.737,266.791 337.5,265.5C 340.826,265.162 342.493,266.662 342.5,270C 341.715,271.79 341.715,273.457 342.5,275C 341.182,276.63 339.849,276.797 338.5,275.5 Z"/></g>
<g><path style="opacity:0.09" fill="#32220e" d="M 226.5,269.5 C 227.434,270.568 227.768,271.901 227.5,273.5C 225.712,273.785 224.045,273.452 222.5,272.5C 224.332,271.943 225.665,270.943 226.5,269.5 Z"/></g>
<g><path style="opacity:0.537" fill="#7c5b19" d="M 287.5,269.5 C 286.957,269.44 286.624,269.107 286.5,268.5C 287.729,267.719 289.062,267.219 290.5,267C 288.527,266.505 286.527,266.338 284.5,266.5C 284.5,269.5 284.5,272.5 284.5,275.5C 284.167,275.5 283.833,275.5 283.5,275.5C 283.5,272.167 283.5,268.833 283.5,265.5C 286.167,265.5 288.833,265.5 291.5,265.5C 291.5,266.5 291.5,267.5 291.5,268.5C 289.901,268.232 288.568,268.566 287.5,269.5 Z"/></g>
<g><path style="opacity:0.165" fill="#39250a" d="M 291.5,271.5 C 291.5,272.167 291.5,272.833 291.5,273.5C 284.833,272.833 284.833,272.167 291.5,271.5 Z"/></g>
<g><path style="opacity:0.586" fill="#7e5d1d" d="M 300.5,269.5 C 299.957,269.44 299.624,269.107 299.5,268.5C 301.078,267.702 302.744,267.202 304.5,267C 302.19,266.503 299.857,266.337 297.5,266.5C 297.5,269.5 297.5,272.5 297.5,275.5C 297.167,275.5 296.833,275.5 296.5,275.5C 296.5,272.167 296.5,268.833 296.5,265.5C 299.5,265.5 302.5,265.5 305.5,265.5C 305.5,266.5 305.5,267.5 305.5,268.5C 303.585,268.216 301.919,268.549 300.5,269.5 Z"/></g>
<g><path style="opacity:0.116" fill="#1e0f00" d="M 374.5,273.5 C 373.167,273.5 371.833,273.5 370.5,273.5C 370.5,273.167 370.5,272.833 370.5,272.5C 372.869,272.149 375.203,271.982 377.5,272C 376.756,273.039 375.756,273.539 374.5,273.5 Z"/></g>
<g><path style="opacity:0.09" fill="#221301" d="M 382.5,268.5 C 382.833,268.5 383.167,268.5 383.5,268.5C 383.5,271.167 383.5,273.833 383.5,276.5C 381.901,276.768 380.568,276.434 379.5,275.5C 379.833,275.5 380.167,275.5 380.5,275.5C 382.344,273.721 383.01,271.388 382.5,268.5 Z"/></g>
<g><path style="opacity:0.548" fill="#70571b" d="M 166.5,272.5 C 167.043,272.56 167.376,272.893 167.5,273.5C 159.677,274.82 152.01,274.82 144.5,273.5C 152.019,273.825 159.352,273.492 166.5,272.5 Z"/></g>
<g><path style="opacity:0.725" fill="#694f14" d="M 236.5,272.5 C 235.986,273.625 235.653,274.791 235.5,276C 234.251,276.74 233.251,276.573 232.5,275.5C 234.117,274.411 234.95,272.744 235,270.5C 235.717,271.044 236.217,271.711 236.5,272.5 Z"/></g>
<g><path style="opacity:0.231" fill="#241806" d="M 246.5,273.5 C 247.5,273.833 248.167,274.5 248.5,275.5C 247.761,275.631 247.094,275.464 246.5,275C 245.262,274.31 245.262,273.81 246.5,273.5 Z"/></g>
<g><path style="opacity:0.157" fill="#231301" d="M 314.5,274.5 C 313.024,276.432 311.357,276.765 309.5,275.5C 309.833,275.5 310.167,275.5 310.5,275.5C 311.931,275.119 312.764,274.119 313,272.5C 313.717,273.044 314.217,273.711 314.5,274.5 Z"/></g>
<g><path style="opacity:0.133" fill="#291a0a" d="M 317.5,271.5 C 318.11,272.391 318.443,273.391 318.5,274.5C 316.618,273.779 316.285,272.779 317.5,271.5 Z"/></g>
<g><path style="opacity:0.122" fill="#3e2b0e" d="M 334.5,266.5 C 333.235,267.514 332.569,269.014 332.5,271C 332.833,272.5 333.167,274 333.5,275.5C 334.053,269.431 335.387,269.097 337.5,274.5C 336.2,275.108 334.867,275.775 333.5,276.5C 332.263,276.444 331.263,275.944 330.5,275C 331.451,271.943 331.784,268.777 331.5,265.5C 332.791,265.263 333.791,265.596 334.5,266.5 Z"/></g>
<g><path style="opacity:0.012" fill="#2f210b" d="M 346.5,268.5 C 346.166,271.188 346.832,273.521 348.5,275.5C 346.156,275.021 344.822,273.521 344.5,271C 344.639,269.699 345.305,268.866 346.5,268.5 Z"/></g>
<g><path style="opacity:1" fill="#bd8c1f" d="M 248.5,275.5 C 248.167,274.5 247.5,273.833 246.5,273.5C 245.469,266.715 248.469,264.215 255.5,266C 255.705,268.638 255.705,271.804 255.5,275.5C 253.135,276.822 250.802,276.822 248.5,275.5 Z"/></g>
<g><path style="opacity:0.043" fill="#372310" d="M 250.5,269.5 C 250.833,269.5 251.167,269.5 251.5,269.5C 251.721,270.735 252.388,271.735 253.5,272.5C 253.376,273.107 253.043,273.44 252.5,273.5C 251.5,272.833 250.5,272.167 249.5,271.5C 250.338,271.158 250.672,270.492 250.5,269.5 Z"/></g>
<g><path style="opacity:1" fill="#ecb024" d="M 300.5,269.5 C 302.483,269.157 303.817,269.824 304.5,271.5C 297.951,271.907 297.951,272.907 304.5,274.5C 302.257,275.474 299.924,275.808 297.5,275.5C 297.5,272.5 297.5,269.5 297.5,266.5C 299.857,266.337 302.19,266.503 304.5,267C 302.744,267.202 301.078,267.702 299.5,268.5C 299.624,269.107 299.957,269.44 300.5,269.5 Z"/></g>
<g><path style="opacity:1" fill="#c89521" d="M 353.5,275.5 C 351.833,275.5 350.167,275.5 348.5,275.5C 346.832,273.521 346.166,271.188 346.5,268.5C 347.286,266.265 348.952,265.265 351.5,265.5C 353.067,265.477 354.4,265.977 355.5,267C 353.75,268.319 351.75,268.819 349.5,268.5C 349.622,272.838 349.955,273.172 350.5,269.5C 352.167,269.5 353.833,269.5 355.5,269.5C 355.975,272.082 355.308,274.082 353.5,275.5 Z"/></g>
<g><path style="opacity:0.188" fill="#30230d" d="M 237.5,274.5 C 239.035,275.354 240.368,275.354 241.5,274.5C 242.751,275.472 242.418,276.139 240.5,276.5C 238.962,276.547 237.962,275.88 237.5,274.5 Z"/></g>
<g><path style="opacity:0.165" fill="#31220c" d="M 274.5,274.5 C 275.833,274.833 277.167,275.167 278.5,275.5C 278.938,275.435 279.272,275.601 279.5,276C 277.326,276.877 275.659,276.377 274.5,274.5 Z"/></g>
<g><path style="opacity:0.153" fill="#291c03" d="M 291.5,273.5 C 292.404,274.209 292.737,275.209 292.5,276.5C 289.287,276.81 286.287,276.477 283.5,275.5C 283.833,275.5 284.167,275.5 284.5,275.5C 287.388,276.01 289.721,275.344 291.5,273.5 Z"/></g>
<g><path style="opacity:0.175" fill="#261804" d="M 304.5,271.5 C 305.5,271.5 306.5,271.5 307.5,271.5C 307.64,273.124 306.973,274.29 305.5,275C 305.833,275.333 306.167,275.667 306.5,276C 302.973,276.808 299.64,276.641 296.5,275.5C 296.833,275.5 297.167,275.5 297.5,275.5C 299.924,275.808 302.257,275.474 304.5,274.5C 297.951,272.907 297.951,271.907 304.5,271.5 Z"/></g>
<g><path style="opacity:0.02" fill="#1c0f02" d="M 318.5,274.5 C 319.751,275.472 319.418,276.139 317.5,276.5C 316.584,276.457 315.917,276.124 315.5,275.5C 316.791,275.737 317.791,275.404 318.5,274.5 Z"/></g>
<g><path style="opacity:0.243" fill="#322004" d="M 348.5,275.5 C 350.167,275.5 351.833,275.5 353.5,275.5C 351.833,278.167 350.167,278.167 348.5,275.5 Z"/></g>
</svg>
